<svg version="1.1" xmlns="http://www.w3.org/2000/svg" xmlns:xlink="http://www.w3.org/1999/xlink" width="46.44068" height="66.39437" viewBox="0,0,46.44068,66.39437"><g transform="translate(-216.77966,-146.80281)"><g data-paper-data="{&quot;isPaintingLayer&quot;:true}" fill-rule="nonzero" stroke-linecap="butt" stroke-linejoin="miter" stroke-miterlimit="10" stroke-dasharray="" stroke-dashoffset="0" style="mix-blend-mode: normal"><g data-paper-data="{&quot;index&quot;:null}" fill="#ffffff" stroke="#93bbff" stroke-width="1.5"><path d="M233.33735,179.88461h23.76923l-21.46154,32.53846l-11.76923,-0.69231z" data-paper-data="{&quot;index&quot;:null}"/><path d="M223.87582,148.26923l11.76923,-0.69231l21.46154,32.53846h-23.76923z"/></g><path d="M234.60228,171.98959c3.56899,0 15.9127,0 15.9127,0c0,0 11.95536,3.7599 11.95536,7.99854c0,4.11364 -11.95536,8.02235 -11.95536,8.02235c0,0 -12.47092,0 -16.02381,0c-1.7705,0 -3.97917,-2.29708 -3.97917,-3.98266c0,-1.66362 0,-5.31797 0,-8.16667c0,-2.16938 2.28082,-3.87156 4.09028,-3.87156z" data-paper-data="{&quot;index&quot;:null}" fill="#ffffff" stroke="#93bbff" stroke-width="1.5"/><path d="M239.76895,172.19447l9.83334,0l0,15.94444l-9.83334,0z" data-paper-data="{&quot;index&quot;:null}" fill="#93bbff" stroke="none" stroke-width="0"/><path d="M248.98081,172.7523c0.31623,0 0.86107,0 0.86107,0l-0.1013,14.49552c0,0 -0.54594,0 -0.86107,0c-1.6142,0 -3.62791,-2.07837 -3.62791,-3.60347c0,-1.50523 0,-4.81164 0,-7.38911c0,-1.96283 2.07948,-3.50294 3.72921,-3.50294z" data-paper-data="{&quot;index&quot;:null}" fill="#ffffff" stroke="none" stroke-width="0"/><path d="M239.81415,172.75229c0.31623,0 0.86107,0 0.86107,0l-0.1013,14.49552c0,0 -0.54594,0 -0.86107,0c-1.6142,0 -3.62791,-2.07836 -3.62791,-3.60347c0,-1.50523 0,-4.81164 0,-7.38911c0,-1.96283 2.07948,-3.50294 3.72921,-3.50294z" data-paper-data="{&quot;index&quot;:null}" fill="#93bbff" stroke="none" stroke-width="0"/><g data-paper-data="{&quot;index&quot;:null}" stroke="#93bbff" stroke-width="1.5"><path d="M237.48446,163.29764c0.77881,0 11.59663,0 12.85695,0c1.69178,0 3.31645,2.02315 3.31645,3.31645c0,0.75376 0,0.51141 0,1.72638c0,1.72307 -2.05645,3.36189 -3.36189,3.36189c-0.72838,0 -11.46121,0 -12.6298,0c-1.63373,0 -3.45275,-2.05645 -3.45275,-3.36189c0,-0.77567 0,-0.57825 0,-1.81724c0,-1.66984 1.98997,-3.22559 3.27103,-3.22559z" fill="#ffffff"/><path d="M250.34141,163.29764c1.69178,0 3.31645,2.02314 3.31645,3.31645c0,0.75376 0,0.51141 0,1.72638c0,1.72307 -2.05645,3.36189 -3.36189,3.36189c-0.72837,0 -1.21488,-8.40472 0.04544,-8.40472z" fill="#93bbff"/></g><g data-paper-data="{&quot;index&quot;:null}" stroke="#93bbff" stroke-width="1.5"><path d="M237.48446,188.29764c0.77881,0 11.59663,0 12.85695,0c1.69178,0 3.31645,2.02315 3.31645,3.31645c0,0.75376 0,0.51141 0,1.72638c0,1.72307 -2.05645,3.36189 -3.36189,3.36189c-0.72838,0 -11.46121,0 -12.6298,0c-1.63373,0 -3.45275,-2.05645 -3.45275,-3.36189c0,-0.77567 0,-0.57825 0,-1.81724c0,-1.66984 1.98997,-3.22559 3.27103,-3.22559z" fill="#ffffff"/><path d="M250.34141,188.29764c1.69178,0 3.31645,2.02314 3.31645,3.31645c0,0.75376 0,0.51141 0,1.72638c0,1.72307 -2.05645,3.36189 -3.36189,3.36189c-0.72837,0 -1.21488,-8.40472 0.04544,-8.40472z" fill="#93bbff"/></g><g data-paper-data="{&quot;index&quot;:null}" stroke="#93bbff" stroke-width="1.5"><path d="M222.76975,171.65385c3.71599,0 8.83684,3.73669 8.83684,8.34615c0,4.60945 -5.12084,8.34615 -8.83684,8.34615c-3.71599,0 -5.24009,-3.7367 -5.24009,-8.34615c0,-4.60945 1.52409,-8.34615 5.24009,-8.34615z" fill="#ffffff"/><path d="M220.89626,187.96644c-2.36329,-1.06118 -3.3666,-4.22654 -3.3666,-7.96644c0,-3.83789 1.05657,-7.07074 3.55516,-8.04549c0.24736,-0.0965 1.39284,3.99856 1.35614,7.99477c-0.03783,4.11891 -1.26581,8.14239 -1.54471,8.01716z" fill="#93bbff"/></g></g></g></svg>